<mxfile host="Electron" modified="2024-05-07T17:27:12.513Z" agent="Mozilla/5.0 (Windows NT 10.0; Win64; x64) AppleWebKit/537.36 (KHTML, like Gecko) draw.io/23.1.5 Chrome/120.0.6099.109 Electron/28.1.0 Safari/537.36" etag="GTgVxrxCDmNEJ9i9gROn" version="23.1.5" type="device">
  <diagram name="Strona-1" id="fxJRpwUc8-q8Fkyzjm5L">
    <mxGraphModel dx="1024" dy="684" grid="1" gridSize="10" guides="1" tooltips="1" connect="1" arrows="1" fold="1" page="1" pageScale="1" pageWidth="583" pageHeight="413" math="0" shadow="0">
      <root>
        <mxCell id="0" />
        <mxCell id="1" parent="0" />
        <mxCell id="wvDRkDG8p7xyPUtSe_XZ-64" value="&lt;br&gt;&lt;br&gt;&lt;br&gt;&lt;br&gt;&lt;br&gt;&lt;br&gt;&lt;br&gt;&lt;br&gt;&lt;br&gt;&lt;br&gt;&lt;br&gt;&lt;br&gt;&lt;br&gt;&lt;i&gt;Uproszczone MFCC&lt;/i&gt;" style="rounded=0;whiteSpace=wrap;html=1;" parent="1" vertex="1">
          <mxGeometry x="192" y="176" width="340" height="230" as="geometry" />
        </mxCell>
        <mxCell id="wvDRkDG8p7xyPUtSe_XZ-37" value="16 &lt;br&gt;kHz" style="text;html=1;align=center;verticalAlign=middle;whiteSpace=wrap;rounded=0;" parent="1" vertex="1">
          <mxGeometry x="482" y="51" width="30" height="30" as="geometry" />
        </mxCell>
        <mxCell id="wvDRkDG8p7xyPUtSe_XZ-38" value="Wyseparowanie fragmentu" style="rounded=0;whiteSpace=wrap;html=1;" parent="1" vertex="1">
          <mxGeometry x="412" y="118.5" width="110" height="30" as="geometry" />
        </mxCell>
        <mxCell id="wvDRkDG8p7xyPUtSe_XZ-40" value="" style="shape=flexArrow;endArrow=classic;html=1;rounded=0;entryX=0.5;entryY=0;entryDx=0;entryDy=0;exitX=1;exitY=0.5;exitDx=0;exitDy=0;exitPerimeter=0;" parent="1" source="wvDRkDG8p7xyPUtSe_XZ-114" target="wvDRkDG8p7xyPUtSe_XZ-38" edge="1">
          <mxGeometry width="50" height="50" relative="1" as="geometry">
            <mxPoint x="467" y="51" as="sourcePoint" />
            <mxPoint x="292" y="96" as="targetPoint" />
            <Array as="points">
              <mxPoint x="467" y="51" />
            </Array>
          </mxGeometry>
        </mxCell>
        <mxCell id="wvDRkDG8p7xyPUtSe_XZ-42" value="Model" style="shape=cylinder3;whiteSpace=wrap;html=1;boundedLbl=1;backgroundOutline=1;size=15;" parent="1" vertex="1">
          <mxGeometry x="72" y="216" width="80" height="110" as="geometry" />
        </mxCell>
        <mxCell id="wvDRkDG8p7xyPUtSe_XZ-59" style="edgeStyle=orthogonalEdgeStyle;rounded=0;orthogonalLoop=1;jettySize=auto;html=1;exitX=0;exitY=0.25;exitDx=0;exitDy=0;entryX=1;entryY=0.25;entryDx=0;entryDy=0;strokeWidth=5;" parent="1" source="wvDRkDG8p7xyPUtSe_XZ-54" target="wvDRkDG8p7xyPUtSe_XZ-58" edge="1">
          <mxGeometry relative="1" as="geometry" />
        </mxCell>
        <mxCell id="wvDRkDG8p7xyPUtSe_XZ-96" value="Transformacja" style="edgeLabel;html=1;align=center;verticalAlign=middle;resizable=0;points=[];" parent="wvDRkDG8p7xyPUtSe_XZ-59" vertex="1" connectable="0">
          <mxGeometry x="0.1921" y="-1" relative="1" as="geometry">
            <mxPoint x="18" y="-20" as="offset" />
          </mxGeometry>
        </mxCell>
        <mxCell id="wvDRkDG8p7xyPUtSe_XZ-60" style="edgeStyle=orthogonalEdgeStyle;rounded=0;orthogonalLoop=1;jettySize=auto;html=1;exitX=0;exitY=0.75;exitDx=0;exitDy=0;entryX=1;entryY=0.75;entryDx=0;entryDy=0;strokeWidth=5;" parent="1" source="wvDRkDG8p7xyPUtSe_XZ-54" target="wvDRkDG8p7xyPUtSe_XZ-58" edge="1">
          <mxGeometry relative="1" as="geometry" />
        </mxCell>
        <mxCell id="wvDRkDG8p7xyPUtSe_XZ-54" value="FFT" style="rounded=0;whiteSpace=wrap;html=1;" parent="1" vertex="1">
          <mxGeometry x="412" y="336" width="110" height="43" as="geometry" />
        </mxCell>
        <mxCell id="wvDRkDG8p7xyPUtSe_XZ-55" value="" style="shape=flexArrow;endArrow=classic;html=1;rounded=0;entryX=0.5;entryY=0;entryDx=0;entryDy=0;exitX=0.5;exitY=1;exitDx=0;exitDy=0;" parent="1" source="wvDRkDG8p7xyPUtSe_XZ-62" target="wvDRkDG8p7xyPUtSe_XZ-54" edge="1">
          <mxGeometry width="50" height="50" relative="1" as="geometry">
            <mxPoint x="467" y="309.0000000000001" as="sourcePoint" />
            <mxPoint x="232" y="126" as="targetPoint" />
          </mxGeometry>
        </mxCell>
        <mxCell id="wvDRkDG8p7xyPUtSe_XZ-95" value="&lt;div&gt;&lt;br/&gt;&lt;/div&gt;" style="edgeLabel;html=1;align=center;verticalAlign=middle;resizable=0;points=[];" parent="wvDRkDG8p7xyPUtSe_XZ-55" vertex="1" connectable="0">
          <mxGeometry x="-0.0398" y="1" relative="1" as="geometry">
            <mxPoint as="offset" />
          </mxGeometry>
        </mxCell>
        <mxCell id="wvDRkDG8p7xyPUtSe_XZ-58" value="Moduł" style="rounded=0;whiteSpace=wrap;html=1;" parent="1" vertex="1">
          <mxGeometry x="216" y="336" width="89.5" height="43" as="geometry" />
        </mxCell>
        <mxCell id="wvDRkDG8p7xyPUtSe_XZ-61" value="Tablica&lt;br&gt;Okna&lt;br&gt;Hamminga" style="rounded=0;whiteSpace=wrap;html=1;" parent="1" vertex="1">
          <mxGeometry x="329.63" y="266" width="70.37" height="46" as="geometry" />
        </mxCell>
        <mxCell id="wvDRkDG8p7xyPUtSe_XZ-63" value="" style="endArrow=classic;html=1;rounded=0;entryX=0;entryY=0.5;entryDx=0;entryDy=0;exitX=1;exitY=0.5;exitDx=0;exitDy=0;" parent="1" source="wvDRkDG8p7xyPUtSe_XZ-61" target="wvDRkDG8p7xyPUtSe_XZ-62" edge="1">
          <mxGeometry width="50" height="50" relative="1" as="geometry">
            <mxPoint x="422" y="210" as="sourcePoint" />
            <mxPoint x="232" y="186" as="targetPoint" />
          </mxGeometry>
        </mxCell>
        <mxCell id="wvDRkDG8p7xyPUtSe_XZ-69" style="edgeStyle=orthogonalEdgeStyle;rounded=0;orthogonalLoop=1;jettySize=auto;html=1;exitX=0;exitY=0.5;exitDx=0;exitDy=0;entryX=1;entryY=0.5;entryDx=0;entryDy=0;" parent="1" source="wvDRkDG8p7xyPUtSe_XZ-67" target="wvDRkDG8p7xyPUtSe_XZ-68" edge="1">
          <mxGeometry relative="1" as="geometry">
            <Array as="points">
              <mxPoint x="318" y="234" />
              <mxPoint x="318" y="280" />
            </Array>
          </mxGeometry>
        </mxCell>
        <mxCell id="wvDRkDG8p7xyPUtSe_XZ-67" value="Tablica&lt;br&gt;Skali&lt;br&gt;melowej" style="rounded=0;whiteSpace=wrap;html=1;" parent="1" vertex="1">
          <mxGeometry x="329.75" y="220" width="71.25" height="41" as="geometry" />
        </mxCell>
        <mxCell id="wvDRkDG8p7xyPUtSe_XZ-68" value="Mel&lt;br&gt;Transformer" style="rounded=0;whiteSpace=wrap;html=1;" parent="1" vertex="1">
          <mxGeometry x="223.5" y="253" width="74.5" height="53" as="geometry" />
        </mxCell>
        <mxCell id="wvDRkDG8p7xyPUtSe_XZ-70" value="" style="shape=flexArrow;endArrow=classic;html=1;rounded=0;exitX=0.5;exitY=0;exitDx=0;exitDy=0;entryX=0.5;entryY=1;entryDx=0;entryDy=0;" parent="1" source="wvDRkDG8p7xyPUtSe_XZ-58" target="wvDRkDG8p7xyPUtSe_XZ-68" edge="1">
          <mxGeometry width="50" height="50" relative="1" as="geometry">
            <mxPoint x="182" y="236" as="sourcePoint" />
            <mxPoint x="232" y="186" as="targetPoint" />
          </mxGeometry>
        </mxCell>
        <mxCell id="wvDRkDG8p7xyPUtSe_XZ-97" value="Spektro-&lt;br&gt;gram" style="edgeLabel;html=1;align=center;verticalAlign=middle;resizable=0;points=[];" parent="wvDRkDG8p7xyPUtSe_XZ-70" vertex="1" connectable="0">
          <mxGeometry x="0.0469" y="-4" relative="1" as="geometry">
            <mxPoint x="-41" as="offset" />
          </mxGeometry>
        </mxCell>
        <mxCell id="wvDRkDG8p7xyPUtSe_XZ-73" value="Normalizacja" style="rounded=0;whiteSpace=wrap;html=1;" parent="1" vertex="1">
          <mxGeometry x="221.5" y="190" width="78.5" height="38.5" as="geometry" />
        </mxCell>
        <mxCell id="wvDRkDG8p7xyPUtSe_XZ-74" value="Spektro-&lt;br&gt;gram&lt;br&gt;melowy" style="shape=flexArrow;endArrow=classic;html=1;rounded=0;exitX=0.5;exitY=0;exitDx=0;exitDy=0;entryX=0.5;entryY=1;entryDx=0;entryDy=0;" parent="1" target="wvDRkDG8p7xyPUtSe_XZ-73" edge="1">
          <mxGeometry x="-0.014" y="81" width="50" height="50" relative="1" as="geometry">
            <mxPoint x="260.47" y="253" as="sourcePoint" />
            <mxPoint x="260.47" y="223" as="targetPoint" />
            <mxPoint as="offset" />
          </mxGeometry>
        </mxCell>
        <mxCell id="wvDRkDG8p7xyPUtSe_XZ-87" value="Ramkowanie &lt;br&gt;(512 próbek)" style="rounded=0;whiteSpace=wrap;html=1;" parent="1" vertex="1">
          <mxGeometry x="410" y="190" width="112" height="48" as="geometry" />
        </mxCell>
        <mxCell id="wvDRkDG8p7xyPUtSe_XZ-89" value="" style="shape=flexArrow;endArrow=classic;html=1;rounded=0;entryX=0.5;entryY=0;entryDx=0;entryDy=0;exitX=0.5;exitY=1;exitDx=0;exitDy=0;" parent="1" target="wvDRkDG8p7xyPUtSe_XZ-62" edge="1">
          <mxGeometry width="50" height="50" relative="1" as="geometry">
            <mxPoint x="467" y="309.0000000000001" as="sourcePoint" />
            <mxPoint x="467" y="336" as="targetPoint" />
          </mxGeometry>
        </mxCell>
        <mxCell id="wvDRkDG8p7xyPUtSe_XZ-62" value="X" style="ellipse;whiteSpace=wrap;html=1;" parent="1" vertex="1">
          <mxGeometry x="447" y="269" width="40" height="40" as="geometry" />
        </mxCell>
        <mxCell id="wvDRkDG8p7xyPUtSe_XZ-91" value="" style="shape=flexArrow;endArrow=classic;html=1;rounded=0;exitX=0.5;exitY=1;exitDx=0;exitDy=0;entryX=0.5;entryY=0;entryDx=0;entryDy=0;" parent="1" source="wvDRkDG8p7xyPUtSe_XZ-87" target="wvDRkDG8p7xyPUtSe_XZ-62" edge="1">
          <mxGeometry width="50" height="50" relative="1" as="geometry">
            <mxPoint x="182" y="176" as="sourcePoint" />
            <mxPoint x="232" y="126" as="targetPoint" />
          </mxGeometry>
        </mxCell>
        <mxCell id="wvDRkDG8p7xyPUtSe_XZ-94" value="Ramka" style="edgeLabel;html=1;align=center;verticalAlign=middle;resizable=0;points=[];" parent="wvDRkDG8p7xyPUtSe_XZ-91" vertex="1" connectable="0">
          <mxGeometry x="0.1159" y="3" relative="1" as="geometry">
            <mxPoint x="32" y="-2" as="offset" />
          </mxGeometry>
        </mxCell>
        <mxCell id="wvDRkDG8p7xyPUtSe_XZ-92" value="" style="shape=flexArrow;endArrow=classic;html=1;rounded=0;exitX=0.5;exitY=1;exitDx=0;exitDy=0;" parent="1" source="wvDRkDG8p7xyPUtSe_XZ-38" target="wvDRkDG8p7xyPUtSe_XZ-87" edge="1">
          <mxGeometry width="50" height="50" relative="1" as="geometry">
            <mxPoint x="182" y="176" as="sourcePoint" />
            <mxPoint x="232" y="126" as="targetPoint" />
          </mxGeometry>
        </mxCell>
        <mxCell id="wvDRkDG8p7xyPUtSe_XZ-93" value="Fragment" style="edgeLabel;html=1;align=center;verticalAlign=middle;resizable=0;points=[];" parent="wvDRkDG8p7xyPUtSe_XZ-92" vertex="1" connectable="0">
          <mxGeometry x="-0.6969" y="3" relative="1" as="geometry">
            <mxPoint x="42" y="9" as="offset" />
          </mxGeometry>
        </mxCell>
        <mxCell id="wvDRkDG8p7xyPUtSe_XZ-112" value="Kompresja x4" style="rounded=0;whiteSpace=wrap;html=1;" parent="1" vertex="1">
          <mxGeometry x="52" y="109.75" width="120" height="47.5" as="geometry" />
        </mxCell>
        <mxCell id="wvDRkDG8p7xyPUtSe_XZ-113" value="" style="shape=flexArrow;endArrow=classic;html=1;rounded=0;exitX=0.5;exitY=1;exitDx=0;exitDy=0;entryX=0.5;entryY=0;entryDx=0;entryDy=0;entryPerimeter=0;" parent="1" source="wvDRkDG8p7xyPUtSe_XZ-112" target="wvDRkDG8p7xyPUtSe_XZ-42" edge="1">
          <mxGeometry width="50" height="50" relative="1" as="geometry">
            <mxPoint x="182" y="236" as="sourcePoint" />
            <mxPoint x="232" y="186" as="targetPoint" />
          </mxGeometry>
        </mxCell>
        <mxCell id="wvDRkDG8p7xyPUtSe_XZ-114" value="Baza &quot;mini_speech_&lt;br&gt;commands&quot;" style="shape=cylinder3;whiteSpace=wrap;html=1;boundedLbl=1;backgroundOutline=1;size=15;" parent="1" vertex="1">
          <mxGeometry x="62" y="6" width="100" height="90" as="geometry" />
        </mxCell>
        <mxCell id="H5Vzn-tuMgoIhSfnOa_V-13" style="edgeStyle=orthogonalEdgeStyle;rounded=0;orthogonalLoop=1;jettySize=auto;html=1;exitX=0.5;exitY=0;exitDx=0;exitDy=0;shape=flexArrow;" edge="1" parent="1" source="H5Vzn-tuMgoIhSfnOa_V-1">
          <mxGeometry relative="1" as="geometry">
            <mxPoint x="345.7446808510638" y="150" as="targetPoint" />
          </mxGeometry>
        </mxCell>
        <mxCell id="H5Vzn-tuMgoIhSfnOa_V-1" value="ZCR" style="rounded=0;whiteSpace=wrap;html=1;" vertex="1" parent="1">
          <mxGeometry x="310" y="187" width="71.25" height="20" as="geometry" />
        </mxCell>
        <mxCell id="H5Vzn-tuMgoIhSfnOa_V-4" value="" style="shape=flexArrow;endArrow=classic;html=1;rounded=0;exitX=0;exitY=0.25;exitDx=0;exitDy=0;entryX=1;entryY=0.75;entryDx=0;entryDy=0;" edge="1" parent="1" source="wvDRkDG8p7xyPUtSe_XZ-87" target="H5Vzn-tuMgoIhSfnOa_V-1">
          <mxGeometry width="50" height="50" relative="1" as="geometry">
            <mxPoint x="270" y="290" as="sourcePoint" />
            <mxPoint x="320" y="240" as="targetPoint" />
          </mxGeometry>
        </mxCell>
        <mxCell id="H5Vzn-tuMgoIhSfnOa_V-17" style="edgeStyle=orthogonalEdgeStyle;rounded=0;orthogonalLoop=1;jettySize=auto;html=1;exitX=0;exitY=0.5;exitDx=0;exitDy=0;entryX=1;entryY=0.5;entryDx=0;entryDy=0;shape=flexArrow;" edge="1" parent="1" source="H5Vzn-tuMgoIhSfnOa_V-6" target="wvDRkDG8p7xyPUtSe_XZ-112">
          <mxGeometry relative="1" as="geometry" />
        </mxCell>
        <mxCell id="H5Vzn-tuMgoIhSfnOa_V-6" value="Paczkowanie" style="rounded=0;whiteSpace=wrap;html=1;" vertex="1" parent="1">
          <mxGeometry x="221.5" y="115.5" width="164" height="36" as="geometry" />
        </mxCell>
        <mxCell id="H5Vzn-tuMgoIhSfnOa_V-16" value="" style="shape=flexArrow;endArrow=classic;html=1;rounded=0;exitX=0.5;exitY=0;exitDx=0;exitDy=0;" edge="1" parent="1" source="wvDRkDG8p7xyPUtSe_XZ-73">
          <mxGeometry width="50" height="50" relative="1" as="geometry">
            <mxPoint x="240" y="290" as="sourcePoint" />
            <mxPoint x="261" y="150" as="targetPoint" />
          </mxGeometry>
        </mxCell>
      </root>
    </mxGraphModel>
  </diagram>
</mxfile>
